<?xml version="1.0" standalone="no"?>
<svg
  width="600"
  height="600"
  viewBox="0 0 600 600"
  xmlns="http://www.w3.org/2000/svg"
>
  <g transform="translate(300,300)">
    <path d="M154.5,-175.9C194.5,-150.5,217.4,-96.4,222.9,-42.7C228.3,11.1,216.4,64.5,181.4,85.7C146.5,106.9,88.6,95.7,38.9,119.3C-10.9,142.8,-52.7,201.1,-90,205.6C-127.3,210.1,-160.2,160.8,-166.5,113.7C-172.7,66.6,-152.4,21.7,-148.8,-31C-145.2,-83.7,-158.4,-144.1,-136.4,-172.7C-114.4,-201.4,-57.2,-198.2,0,-198.2C57.2,-198.2,114.4,-201.4,154.5,-175.9Z" fill="#9d4bc7" />
  </g>
</svg>
  